<svg width="830pt" height="185pt" xmlns="http://www.w3.org/2000/svg" xmlns:xlink="http://www.w3.org/1999/xlink" xmlns:ev="http://www.w3.org/2001/xml-events" style="overflow: hidden; "><g id="viewport-20251205072737493" class="svg-pan-zoom_viewport" transform="matrix(0.30488539116618574,0,0,0.30488539116618574,179.62197705438703,152.94423276553616)" style="transform: matrix(0.304885, 0, 0, 0.304885, 179.622, 152.944);">
<g id="graph0" class="graph" transform="scale(1 1) rotate(0) translate(4 181)">
<title>TaskFlowManager</title>
<polygon fill="white" stroke="none" points="-4,4 -4,-181 825.82,-181 825.82,4 -4,4"></polygon>
<!-- User -->
<g id="node1" class="node">
<title>User</title>
<polygon fill="none" stroke="black" points="252.91,-4.5 252.91,-40.5 306.91,-40.5 306.91,-4.5 252.91,-4.5"></polygon>
<text text-anchor="middle" x="279.91" y="-19.5" font-family="Times,serif" font-size="10.00">User</text>
</g>
<!-- Project -->
<g id="node2" class="node">
<title>Project</title>
<polygon fill="none" stroke="black" points="396.97,-61.5 396.97,-97.5 450.97,-97.5 450.97,-61.5 396.97,-61.5"></polygon>
<text text-anchor="middle" x="423.97" y="-76.5" font-family="Times,serif" font-size="10.00">Project</text>
</g>
<!-- User&#45;&gt;Project -->
<g id="edge1" class="edge">
<title>User-&gt;Project</title>
<path fill="none" stroke="black" d="M307.17,-28.67C349.15,-28.67 424.82,-28.67 424.82,-28.67 424.82,-28.67 424.82,-49.93 424.82,-49.93"></path>
<polygon fill="black" stroke="black" points="424.82,-59.93 420.32,-49.93 424.82,-56.15 424.82,-49.93 424.82,-49.93 424.82,-49.93 424.82,-56.15 429.32,-49.93 424.82,-59.93"></polygon>
<text text-anchor="middle" x="351.94" y="-63.7" font-family="Times,serif" font-size="14.00">1..* owns</text>
</g>
<!-- Task -->
<g id="node4" class="node">
<title>Task</title>
<polygon fill="none" stroke="black" points="767.82,-60.5 767.82,-96.5 821.82,-96.5 821.82,-60.5 767.82,-60.5"></polygon>
<text text-anchor="middle" x="794.82" y="-75.5" font-family="Times,serif" font-size="10.00">Task</text>
</g>
<!-- User&#45;&gt;Task -->
<g id="edge5" class="edge">
<title>User-&gt;Task</title>
<path fill="none" stroke="black" stroke-dasharray="5,2" d="M307.23,-16.33C413.68,-16.33 794.82,-16.33 794.82,-16.33 794.82,-16.33 794.82,-48.67 794.82,-48.67"></path>
<polygon fill="black" stroke="black" points="791.32,-48.67 794.82,-58.67 798.32,-48.67 791.32,-48.67"></polygon>
<text text-anchor="middle" x="513.11" y="-10.7" font-family="Times,serif" font-size="14.00">0..1 assignedTo</text>
</g>
<!-- Flow -->
<g id="node3" class="node">
<title>Flow</title>
<polygon fill="none" stroke="black" points="575.24,-140.5 575.24,-176.5 710.82,-176.5 710.82,-140.5 575.24,-140.5"></polygon>
<text text-anchor="middle" x="593.52" y="-155.5" font-family="Times,serif" font-size="10.00">Flow</text>
<polyline fill="none" stroke="black" points="611.8,-140.5 611.8,-176.5"></polyline>
<polyline fill="none" stroke="black" points="611.8,-140.5 611.8,-176.5"></polyline>
<text text-anchor="start" x="619.8" y="-161.5" font-family="Times,serif" font-size="10.00">addTask(task)</text>
<text text-anchor="start" x="619.8" y="-149.5" font-family="Times,serif" font-size="10.00"> removeTask(taskId)</text>
</g>
<!-- Project&#45;&gt;Flow -->
<g id="edge2" class="edge">
<title>Project-&gt;Flow</title>
<path fill="none" stroke="black" d="M424.82,-97.82C424.82,-121.16 424.82,-158.5 424.82,-158.5 424.82,-158.5 563.67,-158.5 563.67,-158.5"></path>
<polygon fill="black" stroke="black" points="573.67,-158.5 563.67,-163 569.89,-158.5 563.67,-158.5 563.67,-158.5 563.67,-158.5 569.89,-158.5 563.67,-154 573.67,-158.5"></polygon>
<text text-anchor="middle" x="513.11" y="-152.7" font-family="Times,serif" font-size="14.00">1..* </text>
</g>
<!-- Project&#45;&gt;Task -->
<g id="edge3" class="edge">
<title>Project-&gt;Task</title>
<path fill="none" stroke="black" d="M451.24,-73C451.24,-73 756.29,-73 756.29,-73"></path>
<polygon fill="black" stroke="black" points="766.29,-73 756.29,-77.5 762.51,-73 756.29,-73 756.29,-73 756.29,-73 762.51,-73 756.29,-68.5 766.29,-73"></polygon>
<text text-anchor="middle" x="643.03" y="-109.7" font-family="Times,serif" font-size="14.00">1..*</text>
</g>
<!-- Project&#45;&gt;Task -->
<g id="edge6" class="edge">
<title>Project-&gt;Task</title>
<path fill="none" stroke="black" d="M451.24,-85C451.24,-85 756,-85 756,-85"></path>
<polygon fill="black" stroke="black" points="756,-88.5 766,-85 756,-81.5 756,-88.5"></polygon>
<text text-anchor="middle" x="643.03" y="-56.7" font-family="Times,serif" font-size="14.00">1 project</text>
</g>
<!-- Flow&#45;&gt;Task -->
<g id="edge4" class="edge">
<title>Flow-&gt;Task</title>
<path fill="none" stroke="black" d="M710.93,-158.5C751.35,-158.5 794.82,-158.5 794.82,-158.5 794.82,-158.5 794.82,-107.87 794.82,-107.87"></path>
<polygon fill="black" stroke="black" points="794.82,-97.87 799.32,-107.87 794.82,-101.65 794.82,-107.87 794.82,-107.87 794.82,-107.87 794.82,-101.65 790.32,-107.87 794.82,-97.87"></polygon>
<text text-anchor="middle" x="739.32" y="-152.7" font-family="Times,serif" font-size="14.00">1..*</text>
</g>
<!-- AuthSession -->
<g id="node5" class="node">
<title>AuthSession</title>
<polygon fill="none" stroke="black" points="0,-0.5 0,-44.5 209.91,-44.5 209.91,-0.5 0,-0.5"></polygon>
<text text-anchor="middle" x="33.28" y="-19.5" font-family="Times,serif" font-size="10.00">AuthSession</text>
<polyline fill="none" stroke="black" points="66.56,-0.5 66.56,-44.5"></polyline>
<text text-anchor="start" x="74.56" y="-31.5" font-family="Times,serif" font-size="10.00">token : string</text>
<text text-anchor="start" x="74.56" y="-19.5" font-family="Times,serif" font-size="10.00"> user : User</text>
<text text-anchor="start" x="74.56" y="-7.5" font-family="Times,serif" font-size="10.00"> expiry : DateTime</text>
<polyline fill="none" stroke="black" points="158.37,-0.5 158.37,-44.5"></polyline>
<text text-anchor="start" x="166.37" y="-19.5" font-family="Times,serif" font-size="10.00">isValid()</text>
</g>
<!-- AuthSession&#45;&gt;User -->
<g id="edge7" class="edge">
<title>AuthSession-&gt;User</title>
<path fill="none" stroke="black" d="M210.26,-22.5C210.26,-22.5 241.45,-22.5 241.45,-22.5"></path>
<polygon fill="black" stroke="black" points="251.45,-22.5 241.45,-27 247.67,-22.5 241.45,-22.5 241.45,-22.5 241.45,-22.5 247.67,-22.5 241.45,-18 251.45,-22.5"></polygon>
<text text-anchor="middle" x="231.41" y="-26.7" font-family="Times,serif" font-size="14.00">1</text>
</g>
</g>
</g></svg>